<svg id="图层_1" data-name="图层 1" xmlns="http://www.w3.org/2000/svg" viewBox="0 0 87.75 77.37"><title>icon-01</title><rect x="2.5" y="12.5" width="82.75" height="64.87" rx="2" ry="2" style="fill:#47395e;opacity:0.30000000000000004"/><rect x="2.5" y="2.5" width="82.75" height="64.87" rx="2" ry="2" style="fill:#e0eef5;stroke:#47395e;stroke-miterlimit:10;stroke-width:5px"/><rect x="14.16" y="24.66" width="23.43" height="31.54" style="fill:#d73242;stroke:#47395e;stroke-miterlimit:10;stroke-width:5px"/><path d="M4.5,2.5H83.25a2,2,0,0,1,2,2v7.94a0,0,0,0,1,0,0H2.5a0,0,0,0,1,0,0V4.5A2,2,0,0,1,4.5,2.5Z" style="fill:#956533;stroke:#47395e;stroke-miterlimit:10;stroke-width:5px"/><line x1="48.16" y1="48.45" x2="75.59" y2="48.45" style="fill:#e0eef5;stroke:#47395e;stroke-miterlimit:10;stroke-width:5px"/><line x1="48.16" y1="40.43" x2="75.59" y2="40.43" style="fill:#e0eef5;stroke:#47395e;stroke-miterlimit:10;stroke-width:5px"/><line x1="48.16" y1="32.42" x2="75.59" y2="32.42" style="fill:#e0eef5;stroke:#47395e;stroke-miterlimit:10;stroke-width:5px"/><line x1="48.16" y1="24.4" x2="75.59" y2="24.4" style="fill:#e0eef5;stroke:#47395e;stroke-miterlimit:10;stroke-width:5px"/><line x1="48.16" y1="56.2" x2="75.59" y2="56.2" style="fill:#e0eef5;stroke:#47395e;stroke-miterlimit:10;stroke-width:5px"/></svg>