<svg id="图层_1" data-name="图层 1" xmlns="http://www.w3.org/2000/svg" viewBox="0 0 75.8 108.76"><defs><style>.cls-1{fill:#47395e;opacity:0.3;}.cls-2{fill:#d73242;}.cls-2,.cls-3,.cls-4,.cls-5,.cls-6{stroke:#47395e;stroke-width:5px;}.cls-2,.cls-3,.cls-5,.cls-6{stroke-miterlimit:10;}.cls-3{fill:#e0eef5;}.cls-4,.cls-6{fill:none;}.cls-4{stroke-linecap:round;stroke-linejoin:round;}.cls-5{fill:#90c14e;}</style></defs><title>icon-18</title><path class="cls-1" d="M370.49,252.59v58.54a1.66,1.66,0,0,1-1.66,1.65H349.51l-.85,2.75a1.65,1.65,0,0,1-2.07,1.09l-12.52-3.84H321a1.65,1.65,0,0,1-1.65-1.65v-2.88l-18.47-5.67a1.66,1.66,0,0,1-1.1-2.07l17.18-55.95a1.65,1.65,0,0,1,1.06-1.09l24.25-8.06,3.62-1.21,3.1,2.21,20.82,14.83A1.68,1.68,0,0,1,370.49,252.59Z" transform="translate(-297.19 -207.93)"/><path class="cls-1" d="M349,236.41l-3.1-2.21a1.65,1.65,0,0,1,1.83.56Z" transform="translate(-297.19 -207.93)"/><path class="cls-1" d="M345.88,234.2l-3.62,1.21,1.69-1.21A1.66,1.66,0,0,1,345.88,234.2Z" transform="translate(-297.19 -207.93)"/><path class="cls-2" d="M300.86,292.27l45.74,14a1.66,1.66,0,0,0,2.07-1.1l17.18-56a1.66,1.66,0,0,0-.27-1.49l-17.87-23.32a1.66,1.66,0,0,0-1.84-.56L318,233.17a1.66,1.66,0,0,0-1.06,1.09l-17.18,56A1.66,1.66,0,0,0,300.86,292.27Z" transform="translate(-297.19 -207.93)"/><path class="cls-3" d="M368.83,302.47H321a1.66,1.66,0,0,1-1.66-1.66V242.29a1.66,1.66,0,0,1,.7-1.35l23.92-17a1.66,1.66,0,0,1,1.92,0l23.92,17a1.66,1.66,0,0,1,.7,1.35v58.53A1.66,1.66,0,0,1,368.83,302.47Z" transform="translate(-297.19 -207.93)"/><circle class="cls-3" cx="47.72" cy="30.74" r="4.73"/><path class="cls-4" d="M344.78,237.35c-2,0-3.62-6-3.62-13.46s1.62-13.46,3.62-13.46,3.62,6,3.62,13.46" transform="translate(-297.19 -207.93)"/><rect class="cls-5" x="29.61" y="66.22" width="27.35" height="12.97"/><line class="cls-6" x1="63.36" y1="64" x2="63.36" y2="81.42"/></svg>