<svg id="图层_1" data-name="图层 1" xmlns="http://www.w3.org/2000/svg" viewBox="0 0 88.16 93.47"><defs><style>.cls-1{fill:#47395e;opacity:0.3;}.cls-2{fill:#e0eef5;}.cls-2,.cls-3,.cls-4,.cls-5{stroke:#47395e;stroke-miterlimit:10;stroke-width:5px;}.cls-3{fill:#f5bf2e;}.cls-4{fill:#90c14e;}.cls-5{fill:#d73242;}</style></defs><title>icon-13</title><rect class="cls-1" x="2.5" y="41.41" width="83.16" height="52.06" rx="2" ry="2"/><rect class="cls-2" x="2.5" y="31.41" width="83.16" height="52.06" rx="2" ry="2"/><polygon class="cls-3" points="47.37 83.47 34.96 83.47 56.96 31.41 69.37 31.41 47.37 83.47"/><path class="cls-4" d="M388.81,265.55a2.2,2.2,0,0,0,2.2-2.2V219c0-.35-13.59,32.58-18.35,43.49a2.2,2.2,0,0,0,2,3.07Z" transform="translate(-305.35 -182.08)"/><ellipse class="cls-1" cx="44.09" cy="58.13" rx="16.6" ry="10.69"/><path class="cls-5" d="M349.44,184.58a21.22,21.22,0,0,0-21.22,21.22c0,11.72,16.91,34.41,21.22,34.41s21.21-22.69,21.21-34.41A21.21,21.21,0,0,0,349.44,184.58Zm0,29.13a7.64,7.64,0,1,1,7.63-7.63A7.64,7.64,0,0,1,349.44,213.71Z" transform="translate(-305.35 -182.08)"/></svg>