<svg id="图层_1" data-name="图层 1" xmlns="http://www.w3.org/2000/svg" viewBox="0 0 85.15 106.25"><defs><style>.cls-1{fill:#47395e;opacity:0.3;}.cls-2,.cls-8{fill:#988575;}.cls-2,.cls-5,.cls-6,.cls-7,.cls-8{stroke:#47395e;stroke-miterlimit:10;}.cls-2,.cls-6{stroke-width:4.3px;}.cls-3{fill:#138c43;}.cls-4{fill:#6fbf83;}.cls-5{fill:none;stroke-width:5.02px;}.cls-6{fill:#f5bf2e;}.cls-7{fill:#90c14e;stroke-width:4.4px;}.cls-8{stroke-width:3.67px;}</style></defs><title>icon-04</title><path class="cls-1" d="M9.71,94.74H70.17a0,0,0,0,1,0,0v6a5.55,5.55,0,0,1-5.55,5.55H16.89a7.18,7.18,0,0,1-7.18-7.18V94.74A0,0,0,0,1,9.71,94.74Z"/><path class="cls-2" d="M306.75,181s-7,3-7,9.75.38,9.63,3.5,12.75,11.5,2.75,11.5,2.75l2.75-21.75S310.46,178.45,306.75,181Z" transform="translate(-297.6 -107.75)"/><path class="cls-3" d="M336.51,112.37v67h-5.75V121.28A10,10,0,0,1,336.51,112.37Z" transform="translate(-297.6 -107.75)"/><path class="cls-3" d="M347.62,112.82v66.51h-6V111.17A11.46,11.46,0,0,1,347.62,112.82Z" transform="translate(-297.6 -107.75)"/><path class="cls-4" d="M341.66,111.17v68.16h-5.15v-67A11.59,11.59,0,0,1,341.66,111.17Z" transform="translate(-297.6 -107.75)"/><path class="cls-4" d="M352.57,121.28v58.06h-4.94V112.82a10.56,10.56,0,0,1,1.74,1.31A9.71,9.71,0,0,1,352.57,121.28Z" transform="translate(-297.6 -107.75)"/><path class="cls-5" d="M43.36,2.51h2.58A11.32,11.32,0,0,1,57.25,13.83V71.58a0,0,0,0,1,0,0H32a0,0,0,0,1,0,0V13.83A11.32,11.32,0,0,1,43.36,2.51Z"/><path class="cls-6" d="M361.29,207.25H320.9a6.15,6.15,0,0,1-6.15-6.15V185.25a6.15,6.15,0,0,1,6.15-6.15h40.39a6.15,6.15,0,0,1,6.15,6.15V201.1A6.15,6.15,0,0,1,361.29,207.25Z" transform="translate(-297.6 -107.75)"/><circle class="cls-7" cx="25.41" cy="31.3" r="10.19"/><path class="cls-7" d="M380.46,143.17V128.79a7.79,7.79,0,0,0-15.59,0v14.37H355v15.5h16.61a8.94,8.94,0,0,0,8.94-8.94v-6.56Z" transform="translate(-297.6 -107.75)"/><ellipse class="cls-8" cx="66.27" cy="94.74" rx="6.37" ry="4.74"/></svg>