<svg id="图层_1" data-name="图层 1" xmlns="http://www.w3.org/2000/svg" viewBox="0 0 90.37 97.45"><defs><style>.cls-1{fill:#85bad0;}.cls-2{fill:#f5bf2e;stroke-miterlimit:10;}.cls-2,.cls-4{stroke:#47395e;stroke-width:5px;}.cls-3{fill:#ea5640;}.cls-4{fill:none;stroke-linecap:round;stroke-linejoin:round;}</style></defs><title>校园活动</title><ellipse class="cls-1" cx="39.5" cy="83.47" rx="39.5" ry="13.98"/><rect class="cls-2" x="18.84" y="2.5" width="11.61" height="80.61" rx="5.8" ry="5.8"/><path class="cls-3" d="M517.26,252.41l-49.6-20.63a1,1,0,0,0-1.31.87v41.27a1,1,0,0,0,1.31.87l49.6-20.63A1,1,0,0,0,517.26,252.41Z" transform="translate(-429.83 -226.14)"/><line class="cls-4" x1="75.78" y1="20.52" x2="72.53" y2="19.17"/><path class="cls-4" d="M496.36,242.81,469,231.42a2.37,2.37,0,0,0-3.29,2.19V273a2.37,2.37,0,0,0,3.29,2.19l47.21-19.68a2.37,2.37,0,0,0,0-4.38l-3.78-1.58" transform="translate(-429.83 -226.14)"/></svg>