<svg id="图层_1" data-name="图层 1" xmlns="http://www.w3.org/2000/svg" viewBox="0 0 89.51 76.58"><defs><style>.cls-1,.cls-5{fill:#47395e;}.cls-1{opacity:0.3;}.cls-2,.cls-6,.cls-7{fill:#e0eef5;}.cls-2,.cls-3,.cls-4,.cls-6,.cls-8{stroke:#47395e;stroke-miterlimit:10;stroke-width:5px;}.cls-3{fill:#956533;}.cls-4{fill:#90c14e;}.cls-6{stroke-linecap:round;}.cls-8{fill:#f5bf2e;}</style></defs><title>icon-05</title><rect class="cls-1" x="2.5" y="22.48" width="84.51" height="54.1" rx="2" ry="2"/><rect class="cls-2" x="2.5" y="12.48" width="84.51" height="54.1" rx="2" ry="2"/><path class="cls-3" d="M2.5,55.72H87a0,0,0,0,1,0,0v8.85a2,2,0,0,1-2,2H4.5a2,2,0,0,1-2-2V55.72A0,0,0,0,1,2.5,55.72Z"/><circle class="cls-4" cx="44.75" cy="39.53" r="18.36"/><circle class="cls-5" cx="44.75" cy="39.53" r="10.01"/><line class="cls-6" x1="70.44" y1="21.19" x2="78.16" y2="21.19"/><circle class="cls-7" cx="44.75" cy="39.53" r="3.38"/><path class="cls-8" d="M267.78,164.48H231.05l3.47-8.79a2,2,0,0,1,1.83-1.19h26.13a2,2,0,0,1,1.83,1.19Z" transform="translate(-204.66 -152.01)"/><line class="cls-6" x1="6.25" y1="5.2" x2="14.41" y2="5.2"/></svg>