<svg id="图层_1" data-name="图层 1" xmlns="http://www.w3.org/2000/svg" viewBox="0 0 97.57 86.97"><defs><style>.cls-1{fill:#e0eef5;}.cls-1,.cls-3,.cls-4,.cls-5{stroke:#47395e;stroke-miterlimit:10;stroke-width:5px;}.cls-2{fill:#47395e;opacity:0.3;}.cls-3{fill:#5094d0;}.cls-4{fill:#f5bf2e;}.cls-5{fill:#90c14e;}</style></defs><title>icon-08</title><rect class="cls-1" x="25.1" y="13.15" width="61.65" height="44.78" rx="2" ry="2"/><path class="cls-2" d="M342.59,169.44V206a2,2,0,0,1-2,2H305.92l-7.19,7.19a2,2,0,0,1-3.41-1.41V208h-7.15a2,2,0,0,1-2-2V169.44a2,2,0,0,1,2-2h52.42A2,2,0,0,1,342.59,169.44Z" transform="translate(-283.67 -154.94)"/><path class="cls-3" d="M342.59,159.44V196a2,2,0,0,1-2,2H305.92l-7.19,7.19a2,2,0,0,1-3.41-1.41V198h-7.15a2,2,0,0,1-2-2V159.44a2,2,0,0,1,2-2h52.42A2,2,0,0,1,342.59,159.44Z" transform="translate(-283.67 -154.94)"/><circle class="cls-4" cx="30.71" cy="22.16" r="4.5"/><circle class="cls-4" cx="19.07" cy="22.16" r="4.5"/><circle class="cls-4" cx="42.35" cy="22.16" r="4.5"/><path class="cls-2" d="M322.32,195.6v36.54a2,2,0,0,0,2,2H359l7.19,7.19a2,2,0,0,0,3.41-1.41v-5.77h7.15a2,2,0,0,0,2-2V195.6a2,2,0,0,0-2-2H324.32A2,2,0,0,0,322.32,195.6Z" transform="translate(-283.67 -154.94)"/><path class="cls-4" d="M322.32,185.6v36.54a2,2,0,0,0,2,2H359l7.19,7.19a2,2,0,0,0,3.41-1.41v-5.77h7.15a2,2,0,0,0,2-2V185.6a2,2,0,0,0-2-2H324.32A2,2,0,0,0,322.32,185.6Z" transform="translate(-283.67 -154.94)"/><circle class="cls-5" cx="66.86" cy="48.32" r="4.5"/><circle class="cls-5" cx="78.5" cy="48.32" r="4.5"/><circle class="cls-5" cx="55.23" cy="48.32" r="4.5"/></svg>