<svg id="图层_1" data-name="图层 1" xmlns="http://www.w3.org/2000/svg" viewBox="0 0 84.38 88.03"><defs><style>.cls-1{fill:#47395e;opacity:0.3;}.cls-2,.cls-3{fill:#e0eef5;}.cls-2,.cls-3,.cls-4,.cls-5,.cls-6,.cls-7{stroke:#47395e;stroke-width:5px;}.cls-2,.cls-4,.cls-5,.cls-6{stroke-linejoin:round;}.cls-3,.cls-7{stroke-miterlimit:10;}.cls-4{fill:#d73242;stroke-linecap:round;}.cls-5{fill:#f5bf2e;}.cls-6{fill:#90c14e;}.cls-7{fill:#5094d0;}</style></defs><title>icon-14</title><path class="cls-1" d="M378.37,215.82v45.87a1.91,1.91,0,0,1-1.91,1.91H300.91a1.91,1.91,0,0,1-1.91-1.91V215.82a1.91,1.91,0,0,1,1.91-1.91L327,233.56l11.91,9,11.65-8.88,25.93-19.76A1.91,1.91,0,0,1,378.37,215.82Z" transform="translate(-296.49 -175.56)"/><path class="cls-2" d="M338.68,164" transform="translate(-296.49 -175.56)"/><path class="cls-1" d="M338.87,225.2" transform="translate(-296.49 -175.56)"/><path class="cls-3" d="M338.68,213" transform="translate(-296.49 -175.56)"/><path class="cls-4" d="M305.85,200.3,338.68,179l32.86,21.33,6.83,4.44v2.92a1.91,1.91,0,0,1-1.91,1.91H300.9a1.91,1.91,0,0,1-1.91-1.91v-2.92l6.86-4.46" transform="translate(-296.49 -175.56)"/><polygon class="cls-5" points="71.21 2.5 71.21 62.4 13.17 62.4 13.17 19.71 30.39 19.71 30.39 2.5 71.21 2.5"/><polygon class="cls-6" points="30.39 2.56 30.39 19.71 13.23 19.71 30.39 2.56"/><path class="cls-1" d="M378.37,204.76v39.59a1.91,1.91,0,0,1-1.91,1.91H300.9a1.91,1.91,0,0,1-1.91-1.91V204.76l32.75,15.81a9.18,9.18,0,0,1,13.88,0Z" transform="translate(-296.49 -175.56)"/><path class="cls-3" d="M378.37,205.82v45.87a1.91,1.91,0,0,1-1.91,1.91H300.91a1.91,1.91,0,0,1-1.91-1.91V205.82a1.91,1.91,0,0,1,1.91-1.91L327,223.56l11.91,9,11.65-8.88,25.93-19.76A1.91,1.91,0,0,1,378.37,205.82Z" transform="translate(-296.49 -175.56)"/><path class="cls-3" d="M378.37,248.77v2.92a1.91,1.91,0,0,1-1.91,1.91H300.91a1.91,1.91,0,0,1-1.91-1.91v-2.92l39.69-23.63Z" transform="translate(-296.49 -175.56)"/><circle class="cls-7" cx="42.19" cy="52.57" r="5.45"/></svg>