<svg id="图层_1" data-name="图层 1" xmlns="http://www.w3.org/2000/svg" viewBox="0 0 95.65 95.65"><defs><style>.cls-1,.cls-5{fill:#47395e;}.cls-1{opacity:0.3;}.cls-2{fill:#e0eef5;}.cls-2,.cls-3,.cls-4{stroke:#47395e;stroke-miterlimit:10;stroke-width:5px;}.cls-3{fill:#f5bf2e;}.cls-4{fill:#d73242;}</style></defs><title>icon-12</title><rect class="cls-1" x="2.5" y="12.95" width="63.46" height="82.7" rx="2" ry="2"/><rect class="cls-2" x="2.5" y="2.5" width="63.46" height="82.7" rx="2" ry="2"/><rect class="cls-3" x="291.13" y="140.22" width="62.55" height="46.18" transform="translate(197.54 -279.99) rotate(90)"/><rect class="cls-4" x="22.95" y="35.51" width="21.69" height="21.69"/><circle class="cls-2" cx="42.91" cy="37.61" r="7.82"/><circle class="cls-5" cx="34.17" cy="79.65" r="1.88"/><path class="cls-1" d="M344.71,181.43l-3.27,0a2,2,0,0,1-1.68-3.07l1.74-2.76,37.31-20.38,3.2,5.85Z" transform="translate(-288.17 -120.9)"/><path class="cls-2" d="M345.77,177.26l-3.14.9a2,2,0,0,1-2.47-2.47l.9-3.14,30.06-30.06,4.72,4.72Z" transform="translate(-288.17 -120.9)"/><line class="cls-2" x1="86.34" y1="15.36" x2="93.88" y2="22.91"/></svg>