<?xml version="1.0" standalone="no"?><!DOCTYPE svg PUBLIC "-//W3C//DTD SVG 1.1//EN" "http://www.w3.org/Graphics/SVG/1.1/DTD/svg11.dtd"><svg t="1562831100820" class="icon" viewBox="0 0 1024 1024" version="1.1" xmlns="http://www.w3.org/2000/svg" p-id="6014" id="mx_n_1562831100830" xmlns:xlink="http://www.w3.org/1999/xlink" width="64" height="64"><defs><style type="text/css"></style></defs><path d="M793.6 659.2l6.4 230.4c-19.2 0-38.4 0-64-6.4h-6.4c-281.6-38.4-499.2-224-595.2-473.6-19.2-70.4-32-140.8-38.4-217.6 0-32 6.4-64 6.4-64H320l57.6 166.4-128 89.6c57.6 134.4 160 249.6 288 320l89.6-89.6 166.4 44.8z" fill="#FCF562" p-id="6015" data-spm-anchor-id="a313x.7781069.0.i9" class="selected"></path><path d="M486.4 377.6h83.2v83.2H486.4z" fill="#FCF562" p-id="6016" data-spm-anchor-id="a313x.7781069.0.i13" class="selected"></path><path d="M601.6 492.8H460.8V352h140.8v140.8z m-83.2-57.6h19.2v-25.6h-19.2v25.6z" fill="#044236" p-id="6017" data-spm-anchor-id="a313x.7781069.0.i12" class=""></path><path d="M684.8 377.6H768v83.2h-83.2z" fill="#FCF562" p-id="6018" data-spm-anchor-id="a313x.7781069.0.i10" class="selected"></path><path d="M793.6 492.8h-140.8V352h140.8v140.8z m-83.2-57.6h19.2v-25.6h-19.2v25.6z" fill="#044236" p-id="6019"></path><path d="M876.8 377.6H960v83.2h-83.2z" fill="#FCF562" p-id="6020" data-spm-anchor-id="a313x.7781069.0.i11" class="selected"></path><path d="M992 492.8h-140.8V352h140.8v140.8z m-83.2-57.6h19.2v-25.6h-19.2v25.6z" fill="#044236" p-id="6021"></path><path d="M736 710.4l6.4 192h32l-6.4-230.4-166.4-38.4-25.6 32 160 44.8zM281.6 185.6l51.2 160 32-25.6-57.6-166.4H96s0 12.8-6.4 32h192z" fill="#FFFFFF" p-id="6022"></path><path d="M832 921.6h-32c-19.2 0-44.8 0-64-6.4-288-38.4-524.8-230.4-627.2-492.8-25.6-70.4-38.4-147.2-44.8-224 0-38.4 6.4-70.4 6.4-70.4l6.4-25.6h268.8l70.4 211.2-128 89.6c51.2 108.8 134.4 204.8 243.2 268.8l83.2-89.6 204.8 51.2 12.8 288zM128 166.4v32c0 70.4 12.8 134.4 38.4 198.4 89.6 243.2 307.2 422.4 569.6 454.4 12.8 0 19.2 0 32 6.4l-6.4-172.8-128-32-96 96-19.2-12.8c-134.4-70.4-243.2-192-300.8-332.8l-6.4-25.6 128-89.6-38.4-121.6H128z" fill="#044236" p-id="6023"></path></svg>