<svg id="图层_1" data-name="图层 1" xmlns="http://www.w3.org/2000/svg" viewBox="0 0 99.3 76.61"><title>icon-2</title><rect x="2.5" y="14.05" width="51.38" height="60.62" rx="2" ry="2" style="fill:#47395e;opacity:0.30000000000000004"/><rect x="2.5" y="4.05" width="51.38" height="60.62" rx="2" ry="2" style="fill:#e0eef5;stroke:#47395e;stroke-miterlimit:10;stroke-width:5px"/><line x1="14.27" y1="20.69" x2="42.12" y2="20.69" style="fill:none;stroke:#47395e;stroke-linecap:round;stroke-miterlimit:10;stroke-width:5px"/><line x1="14.27" y1="48.02" x2="42.12" y2="48.02" style="fill:none;stroke:#47395e;stroke-linecap:round;stroke-miterlimit:10;stroke-width:5px"/><line x1="14.27" y1="34.36" x2="42.12" y2="34.36" style="fill:none;stroke:#47395e;stroke-linecap:round;stroke-miterlimit:10;stroke-width:5px"/><g style="opacity:0.30000000000000004"><path d="M446.55,446a21.58,21.58,0,1,0,21.58,21.58A21.44,21.44,0,0,0,446.55,446Zm11.73,33.31a16.58,16.58,0,1,1,4.86-11.73A16.47,16.47,0,0,1,458.28,479.27Z" transform="translate(-389.78 -430.96)" style="fill:#47395e"/><rect x="471.08" y="486.17" width="10.07" height="21.87" rx="2" ry="2" transform="translate(-601.83 51.3) rotate(-45)" style="fill:#47395e"/></g><path d="M446.55,479.13v2.5a24.08,24.08,0,1,1,17-7.05,23.92,23.92,0,0,1-17,7.05Zm0-35.67a14.08,14.08,0,1,0,14.08,14.08A14,14,0,0,0,446.55,443.46Z" transform="translate(-389.78 -430.96)" style="fill:#f5bf2e"/><path d="M446.55,436a21.58,21.58,0,1,1,0,43.17h0a21.58,21.58,0,0,1,0-43.17m0,38.17h0a16.58,16.58,0,1,0-11.73-4.86,16.47,16.47,0,0,0,11.73,4.86m0-43.17h0a26.58,26.58,0,1,0,26.58,26.58A26.41,26.41,0,0,0,446.55,431Zm0,38.17a11.58,11.58,0,1,1,8.19-3.39,11.5,11.5,0,0,1-8.19,3.39Z" transform="translate(-389.78 -430.96)" style="fill:#47395e"/><line x1="72.04" y1="41.84" x2="78.6" y2="48.41" style="fill:#f5bf2e;stroke:#47395e;stroke-miterlimit:10;stroke-width:5px"/><rect x="471.08" y="476.17" width="10.07" height="21.87" rx="2" ry="2" transform="translate(-594.76 48.38) rotate(-45)" style="fill:#956533;stroke:#47395e;stroke-miterlimit:10;stroke-width:5px"/></svg>